<svg class="svg-icon" style="width: 1em; height: 1em;vertical-align: middle;fill: currentColor;overflow: hidden;" viewBox="0 0 1024 1024" version="1.1" xmlns="http://www.w3.org/2000/svg"><path d="M981.333333 1024 213.333333 1024c-12.8 0-21.333333-4.266667-29.866667-12.8l-170.666667-170.666667C4.266667 832 0 823.466667 0 810.666667L0 42.666667c0-25.6 17.066667-42.666667 42.666667-42.666667l938.666667 0c25.6 0 42.666667 17.066667 42.666667 42.666667l0 938.666667C1024 1006.933333 1006.933333 1024 981.333333 1024zM230.4 938.666667 938.666667 938.666667 938.666667 85.333333 85.333333 85.333333l0 708.266667L230.4 938.666667z"  /><path d="M768 1024 256 1024c-25.6 0-42.666667-17.066667-42.666667-42.666667l0-298.666667c0-25.6 17.066667-42.666667 42.666667-42.666667l512 0c25.6 0 42.666667 17.066667 42.666667 42.666667l0 298.666667C810.666667 1006.933333 793.6 1024 768 1024zM298.666667 938.666667l426.666667 0 0-213.333333L298.666667 725.333333 298.666667 938.666667z"  /><path d="M341.333333 853.333333l128 0 0 170.666667-128 0 0-170.666667Z"  /><path d="M512 1024 341.333333 1024l0-213.333333 170.666667 0L512 1024zM384 981.333333l85.333333 0 0-128L384 853.333333 384 981.333333z"  /><path d="M810.666667 554.666667 213.333333 554.666667c-25.6 0-42.666667-17.066667-42.666667-42.666667L170.666667 42.666667c0-25.6 17.066667-42.666667 42.666667-42.666667l597.333333 0c25.6 0 42.666667 17.066667 42.666667 42.666667l0 469.333333C853.333333 537.6 836.266667 554.666667 810.666667 554.666667zM256 469.333333l512 0L768 85.333333 256 85.333333 256 469.333333z"  /></svg>